<svg width="596" height="217" viewBox="0 0 596 217" fill="none" xmlns="http://www.w3.org/2000/svg">
<g clip-path="url(#clip0_40_137)">
<path d="M593.5 107.717C593.5 167.204 545.27 215.433 485.783 215.433C418.436 215.433 351.128 161.595 297.25 107.717C243.372 53.8385 176.064 0 108.716 0C49.2295 0 1 48.2295 1 107.717C1 167.204 49.2295 215.433 108.716 215.433C176.064 215.433 243.372 161.595 297.25 107.717C351.128 53.8385 418.436 0 485.783 0C545.27 0 593.5 48.2295 593.5 107.717Z" stroke="black" stroke-miterlimit="10" stroke-linecap="square"/>
<path d="M64.7614 115V100.455H66.5227V113.438H73.2841V115H64.7614ZM80.2159 115.227C79.2311 115.227 78.367 114.993 77.6236 114.524C76.8849 114.055 76.3073 113.4 75.8906 112.557C75.4787 111.714 75.2727 110.729 75.2727 109.602C75.2727 108.466 75.4787 107.474 75.8906 106.626C76.3073 105.779 76.8849 105.121 77.6236 104.652C78.367 104.183 79.2311 103.949 80.2159 103.949C81.2008 103.949 82.0625 104.183 82.8011 104.652C83.5445 105.121 84.1222 105.779 84.5341 106.626C84.9508 107.474 85.1591 108.466 85.1591 109.602C85.1591 110.729 84.9508 111.714 84.5341 112.557C84.1222 113.4 83.5445 114.055 82.8011 114.524C82.0625 114.993 81.2008 115.227 80.2159 115.227ZM80.2159 113.722C80.964 113.722 81.5795 113.53 82.0625 113.146C82.5455 112.763 82.9029 112.259 83.1349 111.634C83.367 111.009 83.483 110.331 83.483 109.602C83.483 108.873 83.367 108.194 83.1349 107.564C82.9029 106.934 82.5455 106.425 82.0625 106.037C81.5795 105.649 80.964 105.455 80.2159 105.455C79.4678 105.455 78.8523 105.649 78.3693 106.037C77.8864 106.425 77.5289 106.934 77.2969 107.564C77.0649 108.194 76.9489 108.873 76.9489 109.602C76.9489 110.331 77.0649 111.009 77.2969 111.634C77.5289 112.259 77.8864 112.763 78.3693 113.146C78.8523 113.53 79.4678 113.722 80.2159 113.722ZM87.7177 115V104.091H89.337V105.739H89.4506C89.6495 105.199 90.0094 104.761 90.5302 104.425C91.051 104.089 91.6381 103.92 92.2915 103.92C92.4147 103.92 92.5685 103.923 92.7532 103.928C92.9379 103.932 93.0775 103.939 93.1722 103.949V105.653C93.1154 105.639 92.9852 105.618 92.7816 105.589C92.5827 105.556 92.372 105.54 92.1495 105.54C91.6192 105.54 91.1457 105.651 90.729 105.874C90.3171 106.091 89.9904 106.394 89.7489 106.783C89.5122 107.166 89.3938 107.604 89.3938 108.097V115H87.7177ZM99.4009 115.227C98.3498 115.227 97.4431 114.995 96.6808 114.531C95.9232 114.062 95.3384 113.409 94.9265 112.571C94.5193 111.728 94.3157 110.748 94.3157 109.631C94.3157 108.513 94.5193 107.528 94.9265 106.676C95.3384 105.819 95.9113 105.152 96.6452 104.673C97.3839 104.19 98.2456 103.949 99.2305 103.949C99.7987 103.949 100.36 104.044 100.914 104.233C101.468 104.422 101.972 104.73 102.426 105.156C102.881 105.578 103.243 106.136 103.513 106.832C103.783 107.528 103.918 108.385 103.918 109.403V110.114H95.5089V108.665H102.213C102.213 108.049 102.09 107.5 101.844 107.017C101.603 106.534 101.257 106.153 100.807 105.874C100.362 105.594 99.8365 105.455 99.2305 105.455C98.5629 105.455 97.9852 105.62 97.4975 105.952C97.0146 106.278 96.6429 106.705 96.3825 107.23C96.122 107.756 95.9918 108.319 95.9918 108.92V109.886C95.9918 110.71 96.1339 111.409 96.418 111.982C96.7068 112.55 97.1069 112.983 97.6183 113.281C98.1296 113.575 98.7238 113.722 99.4009 113.722C99.8413 113.722 100.239 113.66 100.594 113.537C100.954 113.409 101.264 113.22 101.525 112.969C101.785 112.713 101.986 112.396 102.128 112.017L103.748 112.472C103.577 113.021 103.291 113.504 102.888 113.92C102.486 114.332 101.989 114.654 101.397 114.886C100.805 115.114 100.14 115.227 99.4009 115.227ZM106.468 115V104.091H108.087V105.795H108.229C108.456 105.213 108.823 104.761 109.33 104.439C109.837 104.112 110.445 103.949 111.155 103.949C111.875 103.949 112.474 104.112 112.952 104.439C113.435 104.761 113.811 105.213 114.081 105.795H114.195C114.474 105.232 114.893 104.785 115.452 104.453C116.011 104.117 116.681 103.949 117.462 103.949C118.437 103.949 119.235 104.254 119.855 104.865C120.476 105.471 120.786 106.416 120.786 107.699V115H119.11V107.699C119.11 106.894 118.89 106.319 118.449 105.973C118.009 105.627 117.49 105.455 116.894 105.455C116.127 105.455 115.533 105.687 115.111 106.151C114.69 106.61 114.479 107.192 114.479 107.898V115H112.775V107.528C112.775 106.908 112.573 106.409 112.171 106.03C111.768 105.646 111.25 105.455 110.615 105.455C110.18 105.455 109.773 105.571 109.394 105.803C109.02 106.035 108.717 106.357 108.485 106.768C108.257 107.176 108.144 107.647 108.144 108.182V115H106.468ZM129.475 115V104.091H131.152V115H129.475ZM130.328 102.273C130.001 102.273 129.719 102.161 129.483 101.939C129.251 101.716 129.135 101.449 129.135 101.136C129.135 100.824 129.251 100.556 129.483 100.334C129.719 100.111 130.001 100 130.328 100C130.654 100 130.934 100.111 131.166 100.334C131.403 100.556 131.521 100.824 131.521 101.136C131.521 101.449 131.403 101.716 131.166 101.939C130.934 102.161 130.654 102.273 130.328 102.273ZM134.222 119.091V104.091H135.841V105.824H136.04C136.163 105.634 136.333 105.393 136.551 105.099C136.774 104.801 137.091 104.536 137.503 104.304C137.92 104.067 138.483 103.949 139.193 103.949C140.112 103.949 140.921 104.179 141.622 104.638C142.323 105.097 142.87 105.748 143.263 106.591C143.656 107.434 143.852 108.428 143.852 109.574C143.852 110.729 143.656 111.731 143.263 112.578C142.87 113.421 142.325 114.074 141.629 114.538C140.933 114.998 140.131 115.227 139.222 115.227C138.521 115.227 137.96 115.111 137.538 114.879C137.117 114.643 136.793 114.375 136.565 114.077C136.338 113.774 136.163 113.523 136.04 113.324H135.898V119.091H134.222ZM135.869 109.545C135.869 110.369 135.99 111.096 136.232 111.726C136.473 112.351 136.826 112.841 137.29 113.196C137.754 113.546 138.322 113.722 138.994 113.722C139.695 113.722 140.28 113.537 140.749 113.168C141.222 112.794 141.577 112.292 141.814 111.662C142.055 111.027 142.176 110.322 142.176 109.545C142.176 108.778 142.058 108.087 141.821 107.472C141.589 106.851 141.236 106.361 140.763 106.001C140.294 105.637 139.705 105.455 138.994 105.455C138.313 105.455 137.74 105.627 137.276 105.973C136.812 106.314 136.461 106.792 136.224 107.408C135.988 108.018 135.869 108.731 135.869 109.545ZM154.136 106.534L152.631 106.96C152.536 106.709 152.396 106.465 152.212 106.229C152.032 105.987 151.786 105.788 151.473 105.632C151.161 105.476 150.76 105.398 150.273 105.398C149.605 105.398 149.049 105.552 148.604 105.859C148.163 106.162 147.943 106.548 147.943 107.017C147.943 107.434 148.095 107.763 148.398 108.004C148.701 108.246 149.174 108.447 149.818 108.608L151.438 109.006C152.413 109.242 153.14 109.605 153.618 110.092C154.096 110.575 154.335 111.198 154.335 111.96C154.335 112.585 154.155 113.144 153.795 113.636C153.44 114.129 152.943 114.517 152.304 114.801C151.665 115.085 150.921 115.227 150.074 115.227C148.961 115.227 148.04 114.986 147.311 114.503C146.582 114.02 146.12 113.314 145.926 112.386L147.517 111.989C147.669 112.576 147.955 113.016 148.376 113.31C148.803 113.603 149.359 113.75 150.045 113.75C150.827 113.75 151.447 113.584 151.906 113.253C152.37 112.917 152.602 112.514 152.602 112.045C152.602 111.667 152.47 111.349 152.205 111.094C151.939 110.833 151.532 110.639 150.983 110.511L149.165 110.085C148.166 109.848 147.432 109.482 146.963 108.984C146.499 108.482 146.267 107.855 146.267 107.102C146.267 106.487 146.44 105.942 146.786 105.469C147.136 104.995 147.612 104.624 148.213 104.354C148.819 104.084 149.506 103.949 150.273 103.949C151.352 103.949 152.2 104.186 152.815 104.659C153.436 105.133 153.876 105.758 154.136 106.534ZM163.733 110.54V104.091H165.409V115H163.733V113.153H163.62C163.364 113.707 162.966 114.179 162.426 114.567C161.887 114.95 161.205 115.142 160.381 115.142C159.699 115.142 159.093 114.993 158.563 114.695C158.033 114.392 157.616 113.937 157.313 113.331C157.01 112.72 156.858 111.951 156.858 111.023V104.091H158.534V110.909C158.534 111.705 158.757 112.339 159.202 112.812C159.652 113.286 160.225 113.523 160.921 113.523C161.337 113.523 161.761 113.416 162.192 113.203C162.628 112.99 162.992 112.663 163.286 112.223C163.584 111.783 163.733 111.222 163.733 110.54ZM168.479 115V104.091H170.099V105.795H170.241C170.468 105.213 170.835 104.761 171.342 104.439C171.848 104.112 172.457 103.949 173.167 103.949C173.887 103.949 174.486 104.112 174.964 104.439C175.447 104.761 175.823 105.213 176.093 105.795H176.207C176.486 105.232 176.905 104.785 177.464 104.453C178.022 104.117 178.692 103.949 179.474 103.949C180.449 103.949 181.247 104.254 181.867 104.865C182.487 105.471 182.798 106.416 182.798 107.699V115H181.121V107.699C181.121 106.894 180.901 106.319 180.461 105.973C180.021 105.627 179.502 105.455 178.906 105.455C178.138 105.455 177.544 105.687 177.123 106.151C176.701 106.61 176.491 107.192 176.491 107.898V115H174.786V107.528C174.786 106.908 174.585 106.409 174.183 106.03C173.78 105.646 173.262 105.455 172.627 105.455C172.192 105.455 171.784 105.571 171.406 105.803C171.031 106.035 170.728 106.357 170.496 106.768C170.269 107.176 170.156 107.647 170.156 108.182V115H168.479Z" fill="black"/>
<path d="M415.761 115V100.455H417.523V113.438H424.284V115H415.761ZM431.216 115.227C430.231 115.227 429.367 114.993 428.624 114.524C427.885 114.055 427.307 113.4 426.891 112.557C426.479 111.714 426.273 110.729 426.273 109.602C426.273 108.466 426.479 107.474 426.891 106.626C427.307 105.779 427.885 105.121 428.624 104.652C429.367 104.183 430.231 103.949 431.216 103.949C432.201 103.949 433.063 104.183 433.801 104.652C434.545 105.121 435.122 105.779 435.534 106.626C435.951 107.474 436.159 108.466 436.159 109.602C436.159 110.729 435.951 111.714 435.534 112.557C435.122 113.4 434.545 114.055 433.801 114.524C433.063 114.993 432.201 115.227 431.216 115.227ZM431.216 113.722C431.964 113.722 432.58 113.53 433.062 113.146C433.545 112.763 433.903 112.259 434.135 111.634C434.367 111.009 434.483 110.331 434.483 109.602C434.483 108.873 434.367 108.194 434.135 107.564C433.903 106.934 433.545 106.425 433.062 106.037C432.58 105.649 431.964 105.455 431.216 105.455C430.468 105.455 429.852 105.649 429.369 106.037C428.886 106.425 428.529 106.934 428.297 107.564C428.065 108.194 427.949 108.873 427.949 109.602C427.949 110.331 428.065 111.009 428.297 111.634C428.529 112.259 428.886 112.763 429.369 113.146C429.852 113.53 430.468 113.722 431.216 113.722ZM438.718 115V104.091H440.337V105.739H440.451C440.65 105.199 441.009 104.761 441.53 104.425C442.051 104.089 442.638 103.92 443.292 103.92C443.415 103.92 443.569 103.923 443.753 103.928C443.938 103.932 444.078 103.939 444.172 103.949V105.653C444.115 105.639 443.985 105.618 443.782 105.589C443.583 105.556 443.372 105.54 443.15 105.54C442.619 105.54 442.146 105.651 441.729 105.874C441.317 106.091 440.99 106.394 440.749 106.783C440.512 107.166 440.394 107.604 440.394 108.097V115H438.718ZM450.401 115.227C449.35 115.227 448.443 114.995 447.681 114.531C446.923 114.062 446.338 113.409 445.926 112.571C445.519 111.728 445.316 110.748 445.316 109.631C445.316 108.513 445.519 107.528 445.926 106.676C446.338 105.819 446.911 105.152 447.645 104.673C448.384 104.19 449.246 103.949 450.23 103.949C450.799 103.949 451.36 104.044 451.914 104.233C452.468 104.422 452.972 104.73 453.426 105.156C453.881 105.578 454.243 106.136 454.513 106.832C454.783 107.528 454.918 108.385 454.918 109.403V110.114H446.509V108.665H453.213C453.213 108.049 453.09 107.5 452.844 107.017C452.603 106.534 452.257 106.153 451.807 105.874C451.362 105.594 450.837 105.455 450.23 105.455C449.563 105.455 448.985 105.62 448.498 105.952C448.015 106.278 447.643 106.705 447.382 107.23C447.122 107.756 446.992 108.319 446.992 108.92V109.886C446.992 110.71 447.134 111.409 447.418 111.982C447.707 112.55 448.107 112.983 448.618 113.281C449.13 113.575 449.724 113.722 450.401 113.722C450.841 113.722 451.239 113.66 451.594 113.537C451.954 113.409 452.264 113.22 452.525 112.969C452.785 112.713 452.986 112.396 453.128 112.017L454.748 112.472C454.577 113.021 454.291 113.504 453.888 113.92C453.486 114.332 452.989 114.654 452.397 114.886C451.805 115.114 451.14 115.227 450.401 115.227ZM457.468 115V104.091H459.087V105.795H459.229C459.456 105.213 459.823 104.761 460.33 104.439C460.837 104.112 461.445 103.949 462.155 103.949C462.875 103.949 463.474 104.112 463.952 104.439C464.435 104.761 464.811 105.213 465.081 105.795H465.195C465.474 105.232 465.893 104.785 466.452 104.453C467.011 104.117 467.681 103.949 468.462 103.949C469.437 103.949 470.235 104.254 470.855 104.865C471.476 105.471 471.786 106.416 471.786 107.699V115H470.11V107.699C470.11 106.894 469.89 106.319 469.449 105.973C469.009 105.627 468.49 105.455 467.894 105.455C467.127 105.455 466.533 105.687 466.111 106.151C465.69 106.61 465.479 107.192 465.479 107.898V115H463.775V107.528C463.775 106.908 463.573 106.409 463.171 106.03C462.768 105.646 462.25 105.455 461.615 105.455C461.18 105.455 460.773 105.571 460.394 105.803C460.02 106.035 459.717 106.357 459.485 106.768C459.257 107.176 459.144 107.647 459.144 108.182V115H457.468ZM480.475 115V104.091H482.152V115H480.475ZM481.328 102.273C481.001 102.273 480.719 102.161 480.483 101.939C480.251 101.716 480.135 101.449 480.135 101.136C480.135 100.824 480.251 100.556 480.483 100.334C480.719 100.111 481.001 100 481.328 100C481.654 100 481.934 100.111 482.166 100.334C482.403 100.556 482.521 100.824 482.521 101.136C482.521 101.449 482.403 101.716 482.166 101.939C481.934 102.161 481.654 102.273 481.328 102.273ZM485.222 119.091V104.091H486.841V105.824H487.04C487.163 105.634 487.333 105.393 487.551 105.099C487.774 104.801 488.091 104.536 488.503 104.304C488.92 104.067 489.483 103.949 490.193 103.949C491.112 103.949 491.921 104.179 492.622 104.638C493.323 105.097 493.87 105.748 494.263 106.591C494.656 107.434 494.852 108.428 494.852 109.574C494.852 110.729 494.656 111.731 494.263 112.578C493.87 113.421 493.325 114.074 492.629 114.538C491.933 114.998 491.131 115.227 490.222 115.227C489.521 115.227 488.96 115.111 488.538 114.879C488.117 114.643 487.793 114.375 487.565 114.077C487.338 113.774 487.163 113.523 487.04 113.324H486.898V119.091H485.222ZM486.869 109.545C486.869 110.369 486.99 111.096 487.232 111.726C487.473 112.351 487.826 112.841 488.29 113.196C488.754 113.546 489.322 113.722 489.994 113.722C490.695 113.722 491.28 113.537 491.749 113.168C492.222 112.794 492.577 112.292 492.814 111.662C493.055 111.027 493.176 110.322 493.176 109.545C493.176 108.778 493.058 108.087 492.821 107.472C492.589 106.851 492.236 106.361 491.763 106.001C491.294 105.637 490.705 105.455 489.994 105.455C489.313 105.455 488.74 105.627 488.276 105.973C487.812 106.314 487.461 106.792 487.224 107.408C486.988 108.018 486.869 108.731 486.869 109.545ZM505.136 106.534L503.631 106.96C503.536 106.709 503.396 106.465 503.212 106.229C503.032 105.987 502.786 105.788 502.473 105.632C502.161 105.476 501.76 105.398 501.273 105.398C500.605 105.398 500.049 105.552 499.604 105.859C499.163 106.162 498.943 106.548 498.943 107.017C498.943 107.434 499.095 107.763 499.398 108.004C499.701 108.246 500.174 108.447 500.818 108.608L502.438 109.006C503.413 109.242 504.14 109.605 504.618 110.092C505.096 110.575 505.335 111.198 505.335 111.96C505.335 112.585 505.155 113.144 504.795 113.636C504.44 114.129 503.943 114.517 503.304 114.801C502.665 115.085 501.921 115.227 501.074 115.227C499.961 115.227 499.04 114.986 498.311 114.503C497.582 114.02 497.12 113.314 496.926 112.386L498.517 111.989C498.669 112.576 498.955 113.016 499.376 113.31C499.803 113.603 500.359 113.75 501.045 113.75C501.827 113.75 502.447 113.584 502.906 113.253C503.37 112.917 503.602 112.514 503.602 112.045C503.602 111.667 503.47 111.349 503.205 111.094C502.939 110.833 502.532 110.639 501.983 110.511L500.165 110.085C499.166 109.848 498.432 109.482 497.963 108.984C497.499 108.482 497.267 107.855 497.267 107.102C497.267 106.487 497.44 105.942 497.786 105.469C498.136 104.995 498.612 104.624 499.213 104.354C499.819 104.084 500.506 103.949 501.273 103.949C502.352 103.949 503.2 104.186 503.815 104.659C504.436 105.133 504.876 105.758 505.136 106.534ZM514.733 110.54V104.091H516.409V115H514.733V113.153H514.62C514.364 113.707 513.966 114.179 513.426 114.567C512.887 114.95 512.205 115.142 511.381 115.142C510.699 115.142 510.093 114.993 509.563 114.695C509.033 114.392 508.616 113.937 508.313 113.331C508.01 112.72 507.858 111.951 507.858 111.023V104.091H509.534V110.909C509.534 111.705 509.757 112.339 510.202 112.812C510.652 113.286 511.225 113.523 511.921 113.523C512.337 113.523 512.761 113.416 513.192 113.203C513.628 112.99 513.992 112.663 514.286 112.223C514.584 111.783 514.733 111.222 514.733 110.54ZM519.479 115V104.091H521.099V105.795H521.241C521.468 105.213 521.835 104.761 522.342 104.439C522.848 104.112 523.457 103.949 524.167 103.949C524.887 103.949 525.486 104.112 525.964 104.439C526.447 104.761 526.823 105.213 527.093 105.795H527.207C527.486 105.232 527.905 104.785 528.464 104.453C529.022 104.117 529.692 103.949 530.474 103.949C531.449 103.949 532.247 104.254 532.867 104.865C533.487 105.471 533.798 106.416 533.798 107.699V115H532.121V107.699C532.121 106.894 531.901 106.319 531.461 105.973C531.021 105.627 530.502 105.455 529.906 105.455C529.138 105.455 528.544 105.687 528.123 106.151C527.701 106.61 527.491 107.192 527.491 107.898V115H525.786V107.528C525.786 106.908 525.585 106.409 525.183 106.03C524.78 105.646 524.262 105.455 523.627 105.455C523.192 105.455 522.784 105.571 522.406 105.803C522.031 106.035 521.728 106.357 521.496 106.768C521.269 107.176 521.156 107.647 521.156 108.182V115H519.479Z" fill="black"/>
</g>
<defs>
<clipPath id="clip0_40_137">
<rect width="596" height="217" fill="white"/>
</clipPath>
</defs>
</svg>
